<svg xmlns="http://www.w3.org/2000/svg" version="1.1" xmlns:xlink="http://www.w3.org/1999/xlink" xmlns:svgjs="http://svgjs.dev/svgjs" width="1500" height="1500" viewBox="0 0 1500 1500"><rect width="1500" height="1500" fill="#ffffff"></rect><g transform="matrix(0.6666666666666666,0,0,0.6666666666666666,249.39393939393938,625.1058334928933)"><svg viewBox="0 0 396 99" data-background-color="#d0def9" preserveAspectRatio="xMidYMid meet" height="375" width="1500" xmlns="http://www.w3.org/2000/svg" xmlns:xlink="http://www.w3.org/1999/xlink"><g id="tight-bounds" transform="matrix(1,0,0,1,0.2400000000000091,0.12950561480647593)"><svg viewBox="0 0 395.52 98.74098877038706" height="98.74098877038706" width="395.52"><g><svg viewBox="0 0 523.2947255005114 130.6397618685497" height="98.74098877038706" width="395.52"><g transform="matrix(1,0,0,1,0,18.055133514394356)"><svg viewBox="0 0 395.52 94.52949483976099" height="94.52949483976099" width="395.52"><g id="textblocktransform"><svg viewBox="0 0 395.52 94.52949483976099" height="94.52949483976099" width="395.52" id="textblock"><g><svg viewBox="0 0 395.52 94.52949483976099" height="94.52949483976099" width="395.52"><g transform="matrix(1,0,0,1,0,0)"><svg width="395.52" viewBox="0.5 -44 184.09 44" height="94.52949483976099" data-palette-color="#ff511a"><path d="M21.7-6.2L23.25-4.65 18.6 0 8.65 0 4-4.65 4-36.5 0.5-36.5 0.5-38.5 10.6-38.5 14.75-34.35 14.75-27 21.75-27 21.75-25 14.75-25 14.75-2 17.5-2 21.7-6.2ZM6.25-5.5L9.75-2 12.5-2 12.5-33.5 9.5-36.5 6.25-36.5 6.25-5.5ZM39.25-2L42.75-2 42.75 0 32.4 0 27.75-4.65 27.75-42 24.25-42 24.25-44 34.6-44 39.25-39.35 39.25-2ZM30-5.5L33.5-2 37-2 37-38.5 33.5-42 30-42 30-5.5ZM77.3-2L81.3-2 81.3 0 70.45 0 66.95-3.55 63.4 0 50.9 0 46.25-4.65 46.25-25.35 50.9-30 63.1-30 65.8-27.3 65.8-42 61.8-42 61.8-44 72.65-44 77.3-39.35 77.3-2ZM68.05-5.5L71.55-2 75.05-2 75.05-38.5 71.55-42 68.05-42 68.05-5.5ZM48.5-5.5L52-2 55.75-2 55.75-28 52-28 48.5-24.5 48.5-5.5ZM62.3-2L65.8-5.5 65.8-24.2 62-28 58-28 58-2 62.3-2ZM107.14-30L110.79-26.35 109.24-24.8 106.04-28 101.79-28 98.29-24.5 98.29-2 102.29-2 102.29 0 91.44 0 86.79-4.65 86.79-28 82.79-28 82.79-30 93.64-30 97.19-26.5 100.69-30 107.14-30ZM92.54-2L96.04-2 96.04-24.5 92.54-28 89.04-28 89.04-5.5 92.54-2ZM125.79-2L129.29-2 129.29 0 118.94 0 114.29-4.65 114.29-42 110.79-42 110.79-44 121.14-44 125.79-39.35 125.79-2ZM116.54-5.5L120.04-2 123.54-2 123.54-38.5 120.04-42 116.54-42 116.54-5.5ZM184.59-30L184.59-28 181.29-28 173.79 0 162.34 0 157.74-17.2 153.09 0 141.64 0 134.14-28 130.79-28 130.79-30 145.04-30 148.34-30 148.34-28 145.59-28 151.89-4.5 156.49-21.7 154.84-28 151.44-28 151.44-30 165.74-30 169.14-30 169.14-28 166.29-28 172.59-4.45 178.89-28 174.44-28 174.44-30 181.84-30 184.59-30ZM143.34-2L150.09-2 143.14-28 136.39-28 143.34-2ZM164.04-2L170.79-2 163.84-28 157.09-28 164.04-2Z" opacity="1" transform="matrix(1,0,0,1,0,0)" fill="#000000" class="wordmark-text-0" data-fill-palette-color="primary" id="text-0"></path></svg></g></svg></g></svg></g></svg></g><g transform="matrix(1,0,0,1,417.8361450237914,0)"><svg viewBox="0 0 105.45858047672003 130.6397618685497" height="130.6397618685497" width="105.45858047672003"><g><svg xmlns="http://www.w3.org/2000/svg" xmlns:xlink="http://www.w3.org/1999/xlink" version="1.1" x="0" y="0" viewBox="9.614 0.0002722432875303868 80.7740003486409 100.06104883088214" enable-background="new 0 0 100 100" xml:space="preserve" id="icon-0" width="105.45858047672003" height="130.6397618685497" class="icon-icon-0" data-fill-palette-color="accent"><path fill="#000000" d="M90.386 16.252V16.216L90.383 16.158C90.381 16.125 90.38 16.093 90.377 16.061L90.368 15.969 90.356 15.873 90.341 15.782 90.322 15.687C90.316 15.657 90.308 15.627 90.301 15.598A3 3 0 0 0 90.249 15.419L90.218 15.328A3 3 0 0 0 90.149 15.154L90.112 15.072 90.068 14.985A2 2 0 0 0 89.976 14.823L89.93 14.749 89.874 14.667 89.824 14.596 89.763 14.517A2 2 0 0 0 89.641 14.375C89.622 14.354 89.603 14.332 89.583 14.312L89.511 14.241 89.448 14.181 89.372 14.116 89.304 14.06C89.278 14.039 89.251 14.02 89.224 14L89.152 13.948 89.067 13.893 88.991 13.846 88.976 13.837 88.896 13.794 88.835 13.76 62.276 0.306A2.83 2.83 0 0 0 59.591 0.374L48.595 6.658 48.558 6.681 48.518 6.704 48.473 6.734 48.397 6.784C48.37 6.802 48.344 6.822 48.318 6.841L48.246 6.895C48.22 6.915 48.196 6.936 48.171 6.957A2 2 0 0 0 48.033 7.083L47.971 7.144 47.903 7.218C47.884 7.239 47.865 7.259 47.847 7.281L47.783 7.361A4 4 0 0 0 47.67 7.509L47.626 7.573C47.605 7.605 47.586 7.638 47.566 7.671L47.531 7.73A2 2 0 0 0 47.456 7.875L47.432 7.925C47.412 7.969 47.391 8.014 47.373 8.06L47.347 8.132C47.335 8.166 47.322 8.199 47.311 8.233 47.302 8.26 47.295 8.288 47.287 8.315 47.278 8.347 47.268 8.378 47.26 8.41L47.24 8.498 47.22 8.591C47.214 8.621 47.21 8.652 47.205 8.682L47.191 8.775 47.182 8.868 47.175 8.961C47.173 8.992 47.173 9.024 47.172 9.056L47.17 9.117V16.3L24.72 4.927A2.83 2.83 0 0 0 22.036 4.995L11.04 11.279 11.004 11.301C10.99 11.309 10.976 11.316 10.963 11.325L10.917 11.355 10.763 11.461C10.739 11.479 10.715 11.496 10.692 11.515 10.666 11.535 10.642 11.556 10.617 11.577A4 4 0 0 0 10.479 11.701L10.415 11.764 10.35 11.835C10.33 11.857 10.31 11.878 10.291 11.901L10.23 11.976 10.176 12.044 10.119 12.125 10.071 12.194 10.016 12.284 9.976 12.35C9.953 12.391 9.932 12.433 9.911 12.475L9.872 12.558C9.854 12.598 9.835 12.638 9.819 12.679L9.792 12.753C9.78 12.786 9.767 12.818 9.756 12.852 9.747 12.879 9.74 12.906 9.732 12.934 9.723 12.966 9.713 12.997 9.705 13.03L9.685 13.116C9.678 13.148 9.67 13.179 9.664 13.211L9.65 13.3 9.636 13.395C9.632 13.425 9.63 13.456 9.627 13.486L9.619 13.582 9.616 13.675 9.614 13.737V79C9.614 80.067 10.214 81.043 11.166 81.526L37.725 94.985A2.83 2.83 0 0 0 40.487 94.872L40.505 94.86 43.816 92.966 57.212 99.755A2.83 2.83 0 0 0 59.975 99.642L59.995 99.629 70.895 93.393A2.83 2.83 0 0 0 72.32 90.935V64.395L75.281 65.895A2.83 2.83 0 0 0 78.043 65.782L78.064 65.768 88.963 59.533A2.83 2.83 0 0 0 90.388 57.075V16.287zM61.077 6.047L81.586 16.437 76.478 19.356 55.969 8.966zM36.172 87.85L15.276 77.26V18.346L36.172 28.934zM38.922 23.977L18.414 13.587 23.522 10.668 44.031 21.058zM47.169 84.522L41.836 87.573V28.836L47.169 25.788zM55.659 92.619L49.699 89.598 51.406 88.621A2.83 2.83 0 0 0 52.831 86.163V61.758L55.659 63.191zM58.409 58.234L52.832 55.408V49.901L63.517 55.314zM66.655 89.292L61.322 92.343V63.093L66.655 60.045zM72.317 55.131L72.318 55.093 72.314 55.032 72.308 54.939 72.298 54.841A3 3 0 0 0 72.271 54.654C72.265 54.625 72.26 54.595 72.253 54.566L72.231 54.471 72.207 54.384 72.179 54.291 72.15 54.206A2 2 0 0 0 72.081 54.033L72.043 53.948 72.001 53.864 71.958 53.784 71.909 53.701 71.863 53.626 71.807 53.544 71.757 53.474 71.694 53.394 71.641 53.329 71.572 53.252 71.515 53.191C71.491 53.166 71.465 53.142 71.44 53.118L71.38 53.061 71.301 52.993 71.236 52.939 71.153 52.877 71.083 52.826 70.997 52.77C70.972 52.754 70.948 52.738 70.922 52.723L70.908 52.714 70.827 52.671 70.766 52.637 52.831 43.551V13.725L73.727 24.313V58.76L72.318 58.046V55.164C72.319 55.153 72.317 55.142 72.317 55.131M84.724 55.433L79.391 58.484V24.215L84.724 21.167z" data-fill-palette-color="accent"></path></svg></g></svg></g></svg></g><defs></defs></svg><rect width="395.52" height="98.74098877038706" fill="none" stroke="none" visibility="hidden"></rect></g></svg></g></svg>